<?xml version="1.0" encoding="utf-8"?>
<!-- Generator: Adobe Illustrator 21.0.0, SVG Export Plug-In . SVG Version: 6.00 Build 0)  -->
<svg version="1.1" id="Layer_1" xmlns="http://www.w3.org/2000/svg" xmlns:xlink="http://www.w3.org/1999/xlink" x="0px" y="0px"
	 viewBox="0 0 674.5 216.1" style="enable-background:new 0 0 674.5 216.1;" xml:space="preserve">
<path d="M0-0.4v217h677v-217H0z M669.4,10.7c0,10.4-14.5,152.4-15.1,161.2c-7.1,6.6-17.4-2.3-25.5,7.5c2.1,1.8-5.2,0.4-2.5,4.6
	c-1.4-1.7-3.6-1.1-5.1-1.2c2.3-1.4,4.6-2.8,4.8-5.2c-10.9-0.9-22.8,0.5-33.6-1.3c-6.5-2.1-8.7,8.9-10.2,8.8l0.3-4l-6.6-0.5
	c1.2,4.1,0,10.4,2.8,12.3c-0.2,2.4-2.2,0.6-4.5,1.2c0.8-0.7,2.5-3.8,1.1-4.7c-5.1-0.4-1.7,3.1-7.7,5c0.1-0.8,4.1-6.1-0.8-8.9
	c-12.2-3.4-80.4,0.5-94.1,1c-0.1,0.2-0.2,0.2-0.2,0c0.1,0,0.2,0,0.2,0c0.8-1.4,2.6-13.9,3.3-14.8l-6.1,4.2l3.3,5.1
	c-7.2,8.2-48,13.6-55.8,20.2l2.2,0.2c-6.1,3.5-10.5,3.9-17.9,4.1l4.5-2c-1.7-6.6-5.4-6.1-9.9-5.6l2.7,2.6c-4.8,6-8.9,0.9-16.3,1.8
	l2.8,1.9c-1.6,1.5-3.7,0.5-5.9,0.3c3.9-2.9-2.6-4.2-3.9-7.5c2.5,6.6-4.8,6-7.1,6.6c-1.1-4.9-6.8,3.4-7.2-1.4c-2,1.2-0.7,4,0.1,4.7
	c0.1,0,0.2,0.1,0.3,0.2c-0.1,0-0.2-0.1-0.3-0.2c-4.8-2.4-9,5-17.7,5.8c-15.3-1.3-2-4.2-19.3,1.5l-2-3.4l-1.1,5.5
	c-3-9.9-10.1-2.5-11.6-12.2c-1.7,3.9-3.6-1.1-7.5,2.6c1.7,6.6,6.3,3.7,8.2,7.9c-14.9,2.8-81.1-2.5-94.9-4.5c2.2-0.6,1.7-3.9-0.3-5.6
	l-5.3,2c0.6,1.7,2.1,1.8,1.2,3.3c-2.3,1.4-4.9-2.8-6.1,2.7c0.2-3.2-3.4-3.5-3.4-4.3c-2.6,5.4-12.1-5.8-15,4.4
	c-7.5,1.8-1.7-6.6-9.8-6.5l-0.5,7.2c-0.7-0.9-43.1-0.6-41.9,2.7c-0.6-1.7-1.2-4.1-3.3-5.9c-7.5,1.8-14.7,1.2-22.9,2.9
	c0.8-0.7,1.5-0.7,0.9-2.3c-27.2,0.9-53.3-3.7-80.2-6.8c-5.1-0.4-1-6.5-5.4-6.9c-2.8-1.8-6,1.9-8.3,3.3c0.7,0.9,2.1,1,1.3,2.5
	c-1.4-1.2-3.2-1.7-4.9-2.1c0,0,0,0-0.1,0.1c0,0,0-0.1-0.1-0.1c-3.4-0.7-7-1.1-9.1-5.5c3.7-0.5,6.5,1.3,9.1,5.5c0,0,0.1,0,0.1,0
	c1.6-2.3,4.6-4.4,0.3-5.5l5.8,0.5c0.3-4-1.7,0.6-5.9-1.3l-3.5,0.5l0.3-4C-8.8,161.4,5.3,24,5.3,24l1.3-1.1l8.8,11.4
	c13.6-5.3,29.2,1.7,39.4,3.3c4.4-0.4,16,1.4,22.2-2.9l-0.3,4c7.4-1,17.6-7.3,22-8.5l-0.1,1.6c3-0.6,10.8-4.7,9.8-12
	c7.2,2.2,5.9,9.3,15,5.3l-1.4-0.9c10.4-2.3,61.2,3.7,70.2,1.3l-0.8,1.5c8.4-4.1,19,0.8,27.5-5.7c15.9,3.8,84.3,8.4,102.2,4.3
	c15.5-1.9,1.2-5.4,16.6-4.9c2.2,0.2,3.1-2.9,0.3-4.8c5,1.2,11.7,0.2,16.5,4.6c31.2-6.2,93.3-5.8,123.5-8.1l-0.8,0.7
	c19.8-0.7,97.9-7.1,117.6-6.2l4-4.5c4.1,3.6,8,0.7,13.7,3.6c3-0.5,1.7-3.9,0.3-4.8c4.9,2.8,10.3-0.7,13.1,1.9l-0.8,1.5
	c7.7,4.7,12.2-7,20.7-2.3l-0.1,0.8c3.5,2.7,7.5-1.8,10.5-3.1c4.3,2,0.3,5.6,3.9,7.5c1.5-5,5.3-1.7,9-1.1c1-0.1,2-0.2,2.8-0.3
	c-0.9,0.4-1.9,0.4-2.8,0.3c-4.2,0.4-8.9,1.4-8.6,6c5.2-0.4,1.1,4.9,6.4,2.9l0.4-5.6c2.3-1.4,6.6-0.2,7.2,2.2
	C673.8,11.1,671.6,10.9,669.4,10.7z"/>
</svg>
