<?xml version="1.0" encoding="utf-8"?>
<!-- Generator: Adobe Illustrator 21.0.0, SVG Export Plug-In . SVG Version: 6.00 Build 0)  -->
<svg version="1.1" id="Layer_1" xmlns="http://www.w3.org/2000/svg" xmlns:xlink="http://www.w3.org/1999/xlink" x="0px" y="0px"
	 viewBox="0 0 88.2 90.9" style="enable-background:new 0 0 88.2 90.9;" xml:space="preserve">
<style type="text/css">
	.st0{opacity:0.85;}
	.st1{fill:#FFFFFF;}
</style>
<g>
	<g>
		<g class="st0">
			<path class="st1" d="M85.7,26.8c-0.2-0.7-0.5-1.2-0.8-1.9C85,25.3,85,25.6,85,26C85.1,26.4,85.4,26.6,85.7,26.8z"/>
			<path class="st1" d="M84.1,23.2C84.1,23.1,84,23,84,22.9c-0.1-0.1-0.1-0.2-0.2-0.2L84.1,23.2z"/>
			<path class="st1" d="M82.1,20.3c0.3,0.6,0.6,1.1,1,1.5C82.9,21.3,82.6,20.8,82.1,20.3z"/>
			<path class="st1" d="M83.4,22.8c0-0.3,0.1-0.4,0.4-0.2c0,0,0,0,0,0c-0.2-0.3-0.4-0.6-0.7-0.9C83.2,22.1,83.3,22.5,83.4,22.8z"/>
			<path class="st1" d="M83.4,22.8c0,0.3,0,0.6,0,0.7C83.4,23.3,83.4,23.1,83.4,22.8z"/>
			<path class="st1" d="M80,23.7c-0.3-0.2,0.6-0.6,0.1-1.1c-0.5-0.6-1-1.1-1.5-1.6c-0.5-0.5-1-1-1.5-1.5c-0.6-0.4-0.3-1.9-0.9-2.2
				c-0.6-0.5-1.8-1.2-2.7-1.6c-0.9-0.4-1.4-0.4-0.5,0.3c2.4,2.4,4,3.9,5.8,6.4c0.8,1,1.7,1.9,2.4,2.9c0.7,1,1.5,2.1,2.1,3.2
				c0.3,0.7,0.5,1.3,0.6,2c-0.2-0.9-0.3-1.8-0.6-2.8c-0.1-0.7-0.7-1.3-1.3-1.9c-0.3-0.3-0.7-0.6-1-1c-0.2-0.2-0.3-0.4-0.5-0.6
				C80.3,24.1,80.1,23.9,80,23.7z"/>
			<path class="st1" d="M88.2,41.5c-0.1-0.3-0.4-1-0.4-1c0.7-1.6,0.1-3.2-0.4-4.8c-0.1,0.3-0.2,0.5-0.4,0.8c0.2,0.9,0.5,1,0.6,0.1
				c-0.2,1-0.1,1.9-0.2,2.8c0,0.9,0,1.8,0.1,2.7C87.8,42,88.1,42,88.2,41.5z"/>
			<path class="st1" d="M87.7,43.2c0-0.4-0.1-0.7-0.1-1.1c0,0-0.1,0-0.1,0C87.6,42.5,87.6,42.8,87.7,43.2L87.7,43.2z"/>
			<path class="st1" d="M76.9,14.9c-3.1-3.4-6.5-6.2-10.2-8.4c-0.4,0-0.7,0.1-1-0.3c-0.2-0.3-0.5-0.5-0.7-0.7
				c-0.6-0.3-1.1-0.6-1.7-0.9c-0.2-0.1-0.4-0.1-0.6-0.2c0,0,0,0,0,0c-0.4-0.1-0.3,0.1-0.2,0.4C62.8,5,62.9,5.2,63,5.4
				c-0.1-0.1-0.3-0.4-0.4-0.6c-0.2-0.2-0.5-0.5-0.8-0.7c-0.6-0.1-1.1-0.3-1.7-0.6c0.7,0.1,1.2,0.3,1.7,0.6c0.4,0.1,0.7,0.2,1,0.3
				c0.1,0,0.2,0,0.3,0.1L62.2,4l-1-0.4l-2-0.8c-0.3-0.1-0.6-0.2-0.9-0.2c-1-0.2-2-0.3-2.5-0.9c-0.2-0.1-0.5-0.1-0.7-0.2l0.1,0.1
				c-0.1-0.1-0.2-0.1-0.3-0.2c-0.3-0.1-0.5-0.2-0.8-0.2l-0.8-0.2l-1.6-0.3C51,0.8,50.3,0.9,49.6,1c0,0-0.5-0.3-0.7-0.5
				c-0.3,0.2-0.7,0.4-1.2,0.4c0.6,0.3,1.1,0.7,1.5,0.9C49.8,2.3,50.9,1,51.6,2c-0.7-1-1.7,0.2-2.4-0.2c-0.5-0.2-1-0.6-1.5-0.9
				c-1,0.1-2.3-0.1-3.4-0.5c1.3-0.5,2.5,0,3.4,0.5c0.5-0.1,0.9-0.2,1.2-0.4C49.1,0.7,49.6,1,49.6,1c0.7-0.1,1.5-0.2,2.2-0.3
				l-1.6-0.3c-0.5-0.1-1.1-0.1-1.6-0.2c-1.1-0.1-2.2-0.2-3.3-0.3c-7.1-0.2-14,1.4-20.2,4.5C18.9,7.7,13.5,12.4,9,18.5
				c-4.7,6.6-7.8,14.2-8.7,22c-0.1,1-0.2,2-0.3,2.9c0,1,0,1.9,0,2.9l0,1.5c0,0.5,0.1,1,0.2,1.4c0.1,1,0.2,1.9,0.4,2.9
				C0.7,53,1,54,1.2,54.9c0.2,0.9,0.4,1.9,0.8,2.8C2.6,59.5,3.2,61.3,4,63c1.5,3.5,3.6,6.7,5.9,9.9c0.6,0.8,1.2,1.5,1.8,2.3
				c0.3,0.4,0.6,0.8,0.9,1.2l1,1.1c0.7,0.7,1.3,1.5,2,2.3c0.7,0.7,1.5,1.4,2.2,2.2c0.3,0.3,0.6,0.6,0.9,0.9c0.4,0.3,0.7,0.5,1.1,0.8
				c0.8,0.6,1.6,1.1,2.5,1.7c0.9,0.5,1.9,1,2.9,1.5c0.5,0.2,1,0.5,1.5,0.7l1.6,0.6c1.1,0.4,2.1,0.8,3.2,1.1c1.1,0.3,2.2,0.5,3.2,0.8
				c1,0.3,2,0.3,2.9,0.5c0.9,0.1,1.8,0.2,2.6,0.3c4.2-0.5,5.1-2,5.1-3.2c-0.1-1.3-1.1-2.4-1.3-2.5c-1.1-0.9-2.1-1.5-3.1-1.9
				c-1-0.5-2-0.8-3.2-1.1c-1.2-0.3-2.5-0.8-3.9-1.3c-0.7-0.3-1.5-0.7-2.3-1.2c-0.4-0.2-0.8-0.5-1.2-0.7c-0.4-0.3-0.8-0.6-1.2-1
				c0.6,0.4,0.9,0.8,1.1,1c0.2,0.2,0.2,0.4,0.1,0.4c-0.3,0.2-1.2-0.1-2.3-0.6c-2.4-0.9-5.5-3.5-6.9-6c-1.8-3.9-4.6-7.2-7.1-11.1
				c-2.5-3.9-4.7-8.6-4.8-13.2c0-0.6-0.1-1.1-0.1-1.7c0-0.6,0-1.2-0.1-1.8c0-0.6-0.1-1.2-0.1-1.9c0-0.6,0.1-1.3,0.1-2
				c0.1-1.8,0.7-3.4,1-5.1c0.6-1.6,0.9-3.3,1.6-4.9l0.4-1.2c0.1-0.4,0.3-0.8,0.5-1.2l1.1-2.3c0.4-0.8,0.8-1.5,1.2-2.2l0.6-1.1l0.7-1
				c1.9-2.9,4.3-5.4,7-7.6c2.7-2.3,5.9-4,9.4-5.3c0.5-0.2,0.9-0.3,1.3-0.5l0.7-0.3l0.7-0.2c0.9-0.3,1.7-0.7,2.6-1
				c0.9-0.3,1.7-0.6,2.5-0.9c0.4-0.1,0.8-0.3,1.3-0.4c0.4-0.1,0.9-0.2,1.3-0.3c1.2-0.1,2.6-0.2,3.8,0c0.6,0.1,1.2,0.2,1.8,0.2
				c0.3,0,0.6,0.1,0.8,0.1C49.7,5.9,50,6,50.2,6c1.6,0.3,3.1,0.3,4.4,0.6c0.7,0.1,1.4,0.2,2.1,0.3c0.7,0.1,1.3,0.3,2,0.4
				c-0.7-0.2-1.4-0.4-2-0.6c-0.7-0.1-1.3-0.2-2-0.3c-0.7-0.1-1.3-0.3-2-0.3C52,6,51.2,5.9,50.4,5.8c-2.2-0.3,1.7-1,3.2-1
				c0.7,0,1.4,1.2,2.1,1.2c1.3,0.3,2.6,0.4,4.2,0.6c0.7,0,0.3,0.9,0.6,0.9c1,0.3,1.9,0.4,2.8,0.5c0.4,0,0.9,0.1,1.2,0.2
				c0.4,0.1,0.7,0.3,0.9,0.5c0.8,0.6,1.5,1.2,2.2,1.8c0.4,0.4,0.8,0.7,1.3,1.1c0.3,0.2,0.7,0.3,1,0.5c-0.1-0.4,0.1-0.8,0.2-1.1
				c0.4,0.4,0.9,1,1.3,1.4c-0.4-0.4-0.9-1-1.3-1.4c-0.1,0.3-0.3,0.7-0.2,1.1c0.3,0.2,0.6,0.3,1,0.5c0.3,0.2,0.6,0.4,0.9,0.6
				c0.6,0.4,1.3,0.8,1.9,1.2c0.7,0.4,1.2,0.9,1.8,1.4c0.6,0.5,1.2,1,1.8,1.5c0,0,0-0.1,0-0.1c-0.6-0.6-1.2-1.3-1.7-2
				c-0.3-0.4-0.5-0.7-0.8-1.1c-0.3-0.4-0.5-0.8-0.8-1.2c0.5,0.7,0.2,0.8-0.5,0.2c-0.1-0.3-0.1-0.6-0.2-0.8c0.7,0.4,1.4,0.9,2,1.4
				c0.5,0.6,1,1.2,1.2,2c0,0,0.6,0.4,0.9,0.5c0.2,0.5,0,0.6-0.1,0.9c0.2,0.3,0.5,0.5,0.7,0.8c0-0.4-0.3-1.3-0.6-1.9
				C77.2,15.4,76.9,14.9,76.9,14.9z"/>
			<path class="st1" d="M61.8,4.1c0.3,0,0.5,0.2,0.8,0.3c-1.1-0.5-2.2-0.9-3.3-1.4C59.8,3.6,60.7,3.9,61.8,4.1z"/>
		</g>
	</g>
</g>
</svg>
